<mxfile host="app.diagrams.net" modified="2022-05-03T05:59:23.301Z" agent="5.0 (Macintosh; Intel Mac OS X 10_15_7) AppleWebKit/537.36 (KHTML, like Gecko) Chrome/100.0.4896.127 Safari/537.36" etag="HhASwmd0AZrJpp_b4i2U" version="17.5.0" type="github">
  <diagram id="3228e29e-7158-1315-38df-8450db1d8a1d" name="Page-1">
    <mxGraphModel dx="1144" dy="-651" grid="0" gridSize="10" guides="1" tooltips="1" connect="1" arrows="1" fold="1" page="1" pageScale="1" pageWidth="500" pageHeight="150" background="#EFF1F3" math="0" shadow="0">
      <root>
        <mxCell id="0" />
        <mxCell id="1" parent="0" />
        <mxCell id="E22_CirNxTNWhdUpJIBq-2" value="&lt;font style=&quot;font-size: 40px&quot; face=&quot;Verdana&quot;&gt;&lt;b&gt;&lt;font color=&quot;#4385f4&quot; style=&quot;font-size: 40px&quot;&gt;X&lt;/font&gt;&lt;font color=&quot;#fbbd04&quot; style=&quot;font-size: 40px&quot;&gt;iaooo&lt;/font&gt;&lt;font color=&quot;#ea4435&quot; style=&quot;font-size: 40px&quot;&gt;o&lt;/font&gt;&lt;font color=&quot;#4385f4&quot; style=&quot;font-size: 40px&quot;&gt;b&lt;/font&gt;&lt;font color=&quot;#34a853&quot; style=&quot;font-size: 40px&quot;&gt;a&lt;/font&gt;&lt;font color=&quot;#ea4435&quot; style=&quot;font-size: 40px&quot;&gt;i&lt;/font&gt;&lt;/b&gt;&lt;/font&gt;" style="text;html=1;strokeColor=none;fillColor=none;align=center;verticalAlign=middle;whiteSpace=wrap;rounded=0;" parent="1" vertex="1">
          <mxGeometry x="107.25" y="1373" width="287" height="74" as="geometry" />
        </mxCell>
        <mxCell id="W1bknbqcBgnF96BXK8GT-2" value="&lt;b&gt;&lt;font color=&quot;#4385f4&quot; style=&quot;font-size: 25px&quot;&gt;＞&lt;/font&gt;&lt;/b&gt;" style="text;html=1;strokeColor=none;fillColor=none;align=center;verticalAlign=middle;whiteSpace=wrap;rounded=0;fontFamily=Verdana;fontSize=40;fontColor=#EA4435;" vertex="1" parent="1">
          <mxGeometry x="406.25" y="1390" width="60" height="30" as="geometry" />
        </mxCell>
        <mxCell id="W1bknbqcBgnF96BXK8GT-3" value="&lt;b&gt;&lt;font color=&quot;#4385f4&quot; style=&quot;font-size: 25px&quot;&gt;＜&lt;/font&gt;&lt;/b&gt;" style="text;html=1;strokeColor=none;fillColor=none;align=center;verticalAlign=middle;whiteSpace=wrap;rounded=0;fontFamily=Verdana;fontSize=40;fontColor=#EA4435;" vertex="1" parent="1">
          <mxGeometry x="35.25" y="1390" width="60" height="30" as="geometry" />
        </mxCell>
        <mxCell id="W1bknbqcBgnF96BXK8GT-4" value="&lt;b&gt;&lt;font style=&quot;font-size: 20px&quot;&gt;上一页&lt;/font&gt;&lt;/b&gt;" style="text;html=1;strokeColor=none;fillColor=none;align=center;verticalAlign=middle;whiteSpace=wrap;rounded=0;fontFamily=Verdana;fontSize=40;fontColor=#4385F4;" vertex="1" parent="1">
          <mxGeometry x="28" y="1423" width="74.5" height="49" as="geometry" />
        </mxCell>
        <mxCell id="W1bknbqcBgnF96BXK8GT-5" value="&lt;b&gt;&lt;font style=&quot;font-size: 20px&quot;&gt;下一页&lt;/font&gt;&lt;/b&gt;" style="text;html=1;strokeColor=none;fillColor=none;align=center;verticalAlign=middle;whiteSpace=wrap;rounded=0;fontFamily=Verdana;fontSize=40;fontColor=#4385F4;" vertex="1" parent="1">
          <mxGeometry x="400" y="1418" width="72.5" height="59" as="geometry" />
        </mxCell>
      </root>
    </mxGraphModel>
  </diagram>
</mxfile>
